# xmcd CD database file generated by Grip 2.4
# 
# Track frame offsets:
#       150
#       16085
#       31522
#       41112
#       54652
#       70925
#       94407
#       107225
#       121020
#       140430
#       157470
#       170877
# 
# Disc length: 2490 seconds
# 
# Revision: 3
# Processed by: cddbd v1.4b41PL2 Copyright (c) Steve Scherf et al.
# Submitted via: Grip 2.4
# 
DISCID=a709b80c
DTITLE=Frank Black and the Catholics - Frank Black and the Catholics
DYEAR=1900
DGENRE=
TTITLE0=All My Ghosts
TTITLE1=Back to Rome
TTITLE2=Do You Feel Bad About It?
TTITLE3=Dog Gone
TTITLE4=I Gotta Move
TTITLE5=I Need Peace
TTITLE6=King and Queen of Siam
TTITLE7=Six-Sixty-Six
TTITLE8=Solid Gold
TTITLE9=Steak 'n' Sabre
TTITLE10=Suffering
TTITLE11=The Man Who Was Too Loud
EXTD=Vocals, guitar left: Frank Black\nDrums: Scott Boutler\nBass,backing v
EXTD=ocals: David McCaffrey\nGuitar right: Lyle Workman\n\nRecorded live to
EXTD=two-track at Sound City March 20-22, 1997.
EXTT0=
EXTT1=
EXTT2=
EXTT3=
EXTT4=
EXTT5=
EXTT6=
EXTT7=
EXTT8=
EXTT9=
EXTT10=
EXTT11=
PLAYORDER=
